2.6Hz3min_grf.mot
version=1
nRows=12
nColumns 19
inDegrees=yes
endheader
time	1_ground_force_vx	1_ground_force_vy	1_ground_force_vz	1_ground_force_px	1_ground_force_py	1_ground_force_pz	1_ground_torque_x	1_ground_torque_y	1_ground_torque_z	2_ground_force_vx	2_ground_force_vy	2_ground_force_vz	2_ground_force_px	2_ground_force_py	2_ground_force_pz	2_ground_torque_x	2_ground_torque_y	2_ground_torque_z
            3.751500	            0.909453	           10.645289	           -2.157755	           -0.253750	            0.005793	           -0.305839	           -0.052212	           -0.611146	            0.123877	           -0.479770	            2.949870	           -1.444059	           -0.232311	            0.006130	           -0.833667	           -0.355653	           -0.406141	           -0.453703
            3.752000	            0.955410	           10.645101	           -2.112012	           -0.255459	            0.005808	           -0.309591	           -0.056563	           -0.630218	            0.125037	           -0.058724	            3.135039	           -1.302797	           -0.232311	            0.006130	           -0.833667	           -0.468484	           -0.378056	           -0.491255
            3.752500	            0.499176	           10.461011	           -1.240385	           -0.248240	            0.005763	           -0.298655	           -0.025827	           -0.541249	            0.064177	            0.268766	            3.318697	           -0.832998	           -0.232311	            0.006130	           -0.833667	           -0.393447	           -0.331059	           -0.340316
            3.753000	            0.134517	            9.015670	           -0.511964	           -0.233013	            0.005581	           -0.255695	            0.393037	           -0.535674	           -0.072921	            0.460256	            2.213647	           -0.602380	           -0.232311	            0.006130	           -0.833667	           -0.543993	           -0.265231	           -0.396567
            3.753500	           -0.185425	            9.374369	           -0.096919	           -0.233013	            0.005581	           -0.255695	            0.375309	           -0.508322	           -0.030062	            0.412221	            2.580603	           -0.272549	           -0.232311	            0.006130	           -0.833667	           -0.469039	           -0.217561	           -0.434131
            3.754000	           -0.367691	            9.552634	            0.362869	           -0.233013	            0.005581	           -0.255695	            0.317700	           -0.489269	           -0.188047	           -0.058560	            3.133700	           -0.927372	           -0.232311	            0.006130	           -0.833667	           -0.487655	           -0.255709	           -0.358857
            3.754500	           -0.368210	            8.652485	            0.083868	           -0.233013	            0.005581	           -0.255695	            0.461564	           -0.535710	           -0.132177	           -0.247289	            3.501320	           -0.925978	           -0.232311	            0.006130	           -0.833667	           -0.374653	           -0.331058	           -0.321474
            3.755000	           -0.276574	            9.553634	            0.133362	           -0.233013	            0.005581	           -0.255695	            0.402993	           -0.480701	           -0.015130	           -0.571332	            2.395915	           -1.117494	           -0.232311	            0.006130	           -0.833667	           -0.468434	           -0.378459	           -0.378153
            3.755500	            0.043254	            9.195131	           -0.327540	           -0.233013	            0.005581	           -0.255695	            0.309959	           -0.554132	           -0.095508	           -0.293638	            3.318341	           -1.302040	           -0.232311	            0.006130	           -0.833667	           -0.412069	           -0.387507	           -0.434762
            3.756000	           -0.003338	            9.556833	           -0.601016	           -0.233013	            0.005581	           -0.255695	            0.340275	           -0.563481	           -0.078793	            0.082572	            2.950728	           -1.115801	           -0.232311	            0.006130	           -0.833667	           -0.393404	           -0.349762	           -0.396934
            3.756500	            0.225925	            9.917212	           -0.554183	           -0.233013	            0.005581	           -0.255695	            0.394280	           -0.516905	           -0.125361	            0.268040	            3.503348	           -0.973126	           -0.232311	            0.006130	           -0.833667	           -0.318543	           -0.273802	           -0.415547
            3.757000	           -0.369318	            9.735652	           -0.278341	           -0.233013	            0.005581	           -0.255695	            0.420408	           -0.425213	           -0.037649	            0.222725	            3.133208	           -0.505139	           -0.232311	            0.006130	           -0.833667	           -0.487824	           -0.217629	           -0.434123
